<?xml version="1.0" encoding="iso-8859-1"?>
<!-- Generator: Adobe Illustrator 17.0.0, SVG Export Plug-In . SVG Version: 6.00 Build 0)  -->
<!DOCTYPE svg PUBLIC "-//W3C//DTD SVG 1.1//EN" "http://www.w3.org/Graphics/SVG/1.1/DTD/svg11.dtd">
<svg version="1.1" id="&#x5716;&#x5C64;_1" xmlns="http://www.w3.org/2000/svg" xmlns:xlink="http://www.w3.org/1999/xlink" x="0px"
	 y="0px" width="80.75px" height="33.5px" viewBox="-3.75 -3 80.75 33.5" style="enable-background:new -3.75 -3 80.75 33.5;"
	 xml:space="preserve">
<path style="fill:#FFFFFF;" d="M12.864,13.336c-0.522-0.056-1.12-0.075-1.828-0.075h-5.02c-0.728,0-1.194,0.019-1.717,0.075v-1.511
	c-1.101,0.728-2.109,1.269-3.527,1.922c-0.336-0.821-0.616-1.306-1.101-1.903c1.959-0.784,3.471-1.642,4.814-2.761
	c1.418-1.176,2.332-2.165,2.818-3.079h2.314c0.821,1.194,1.885,2.276,3.228,3.265c1.511,1.12,2.873,1.847,4.702,2.482
	c-0.541,0.709-0.69,1.008-1.101,2.071c-1.493-0.69-2.258-1.12-3.583-1.978v1.492H12.864z M15.775,16.302
	c-0.187,0.187-0.597,0.653-0.821,0.933l-3.601,4.572c-0.466,0.616-0.784,1.064-1.176,1.661l-2.146-1.194
	c0.485-0.448,0.933-0.914,1.437-1.549l3.06-3.769H4.132c-0.765,0-1.53,0.037-2.314,0.112v-2.109
	c0.765,0.075,1.474,0.112,2.332,0.112h8.509c1.063,0,1.567-0.019,1.922-0.093L15.775,16.302z M11.166,11.47
	c0.466,0,0.821,0,1.101-0.019c-1.642-1.157-2.575-2.052-3.751-3.583c-1.175,1.511-2.127,2.426-3.676,3.564
	c0.392,0.037,0.597,0.037,1.082,0.037h5.244V11.47z"/>
<path style="fill:#FFFFFF;" d="M18.965,8.625c0-0.728-0.037-1.381-0.093-1.997c0.597,0.075,1.213,0.093,2.071,0.093h9.031
	c0.877,0,1.455-0.019,2.015-0.093c-0.075,0.709-0.093,1.25-0.093,1.903v12.054c0,0.97,0.037,1.586,0.112,2.258H29.75v-1.12h-8.676
	v1.12h-2.221c0.075-0.635,0.112-1.381,0.112-2.258C18.965,20.585,18.965,8.625,18.965,8.625z M21.074,13.029h8.676V8.7h-8.676
	V13.029z M21.074,19.765h8.676v-4.777h-8.676V19.765z"/>
<path style="fill:#FFFFFF;" d="M57.422,8.457c0-0.97-0.019-1.493-0.075-2.09c0.522,0.056,0.989,0.075,1.903,0.075h3.377
	c0.97,0,1.399-0.019,1.903-0.075c-0.037,0.597-0.056,1.008-0.056,1.735v2.538c0,0.858,0.019,1.288,0.056,1.698
	c-0.448-0.037-1.101-0.056-1.717-0.056H59.38v8.546c0,1.12,0.037,1.773,0.112,2.276h-2.183c0.075-0.56,0.112-1.157,0.112-2.314
	L57.422,8.457L57.422,8.457z M59.381,8.681h3.265V7.916h-3.265V8.681z M59.381,10.771h3.265V9.969h-3.265V10.771z M61.658,14.689
	c-0.653,0.019-0.933,0.037-1.325,0.093v-1.773c0.541,0.075,0.933,0.093,1.735,0.093h6.4c0.84,0,1.176-0.019,1.736-0.093v1.754
	c-0.467-0.056-0.765-0.075-1.4-0.075v6.195c0,0.858,0.019,1.288,0.093,1.717h-1.922c0.075-0.485,0.093-0.896,0.093-1.698v-0.187
	c-1.008,0.112-1.418,0.168-5.448,0.578c-0.69,0.056-0.84,0.093-1.12,0.149l-0.243-1.847c0.28,0.019,0.28,0.019,0.373,0.019
	c0.224,0,0.765-0.019,1.026-0.037v-4.888H61.658z M63.374,15.38h3.695v-0.69h-3.695C63.374,14.69,63.374,15.38,63.374,15.38z
	 M63.374,17.358h3.695v-0.672h-3.695C63.374,16.686,63.374,17.358,63.374,17.358z M63.374,19.466
	c1.791-0.112,1.829-0.112,3.695-0.298v-0.504h-3.695C63.374,18.664,63.374,19.466,63.374,19.466z M65.856,8.103
	c0-0.709-0.019-1.194-0.056-1.735c0.523,0.056,0.952,0.075,1.903,0.075h3.545c0.914,0,1.381-0.019,1.922-0.075
	c-0.075,0.616-0.093,1.176-0.093,2.09v12.334c0,1.81-0.373,2.127-2.426,2.127c-0.317,0-0.373,0-0.989,0
	c-0.074-0.802-0.205-1.325-0.504-1.997c0.709,0.075,1.008,0.093,1.325,0.093c0.541,0,0.634-0.074,0.634-0.466v-8.267h-3.601
	c-0.616,0-1.269,0.019-1.717,0.056c0.037-0.466,0.056-0.877,0.056-1.698V8.103H65.856z M67.703,8.681h3.414V7.916h-3.414V8.681z
	 M67.703,10.771h3.414V9.969h-3.414V10.771z"/>
<g>
	<g>
		<path style="fill:#FFDF00;" d="M36.806,26.78l-0.202-7.379l11.02-0.078l0.201,7.326l2.156,0.066
			c0.484-0.004,0.717-0.291,0.702-0.864l-0.225-8.238l-16.053,0.113l-0.065-2.335l20.883-0.148l0.065,2.335l-2.698,0.019
			l0.231,8.426l0.009,0.322c0.028,1.037-0.129,1.759-0.473,2.163c-0.344,0.406-1.015,0.611-2.013,0.618l-2.698,0.019l-0.588-2.438
			L36.806,26.78z M36.85,14.994l-1.228-2.31c3.737-1.972,3.929-2.38,5.671-4.469l-5.55-0.238l-0.11-2.729l6.169,0.578
			c0.221-0.579,0.197-0.671,0.352-1.184c0.141-0.469,0.295-1.056,0.313-1.221l2.89,0.102l-0.312,1.134l-0.101,0.928
			c0,0,3.143,0.055,4.167-0.079c0.979-0.129,3.464-1.656,3.464-1.656l0.938,2.178c0,0-2.995,1.85-3.861,1.989
			c-0.782,0.125-3.612,0.242-3.612,0.242c1.983,2.041,4.419,3.126,8.543,3.597l-1.16,2.764c-2.208-0.278-3.239-0.714-4.961-1.603
			c-1.722-0.887-3.541-2.036-4.866-4.013C42.442,10.805,39.853,13.429,36.85,14.994z M45.547,21.622l-6.723,0.155l0.146,3.108
			l6.755-0.198L45.547,21.622z M47.876,0.989c-0.043,2.159-1.77,3.872-3.856,3.828c-2.086-0.044-3.744-1.831-3.701-3.988
			c0.043-2.159,1.77-3.872,3.856-3.828C46.26-2.955,47.919-1.17,47.876,0.989z"/>
	</g>
</g>
</svg>
