<?xml version="1.0" encoding="iso-8859-1"?>
<!-- Generator: Adobe Illustrator 17.0.0, SVG Export Plug-In . SVG Version: 6.00 Build 0)  -->
<!DOCTYPE svg PUBLIC "-//W3C//DTD SVG 1.1//EN" "http://www.w3.org/Graphics/SVG/1.1/DTD/svg11.dtd">
<svg version="1.1" id="&#x5716;&#x5C64;_1" xmlns="http://www.w3.org/2000/svg" xmlns:xlink="http://www.w3.org/1999/xlink" x="0px"
	 y="0px" width="45px" height="45px" viewBox="0 0 45 45" style="enable-background:new 0 0 45 45;" xml:space="preserve">
<circle style="fill:#FFED00;" cx="22.5" cy="22.5" r="21.883"/>
<g>
	<path d="M17.249,23.153l1.307-0.309l1.521-0.428v2.233c-0.507,0.189-0.974,0.341-1.402,0.451l-1.426,0.356v5.513v0.309
		c0,0.824-0.151,1.434-0.452,1.83c-0.301,0.396-1.045,0.594-2.233,0.594h-1.996l-0.546-2.353l2.186,0.071
		c0.523,0,0.784-0.253,0.784-0.76v-4.776c-0.238,0.079-0.705,0.175-1.402,0.285l-1.521,0.262l-0.475-2.424
		c0.206-0.016,0.439-0.031,0.701-0.048c0.261-0.016,0.614-0.055,1.057-0.118l1.64-0.262v-4.847h-3.16v-2.115h3.16v-4.633h2.257
		v4.633h2.78v2.115h-2.78V23.153z M21.336,30.78V15.194h2.281V30.78h2.779V11.986h2.33v7.224h4.324V21.3h-4.324v9.48h4.703v2.139
		H18.556V30.78H21.336z"/>
</g>
</svg>
