<?xml version="1.0" encoding="iso-8859-1"?>
<!-- Generator: Adobe Illustrator 17.0.0, SVG Export Plug-In . SVG Version: 6.00 Build 0)  -->
<!DOCTYPE svg PUBLIC "-//W3C//DTD SVG 1.1//EN" "http://www.w3.org/Graphics/SVG/1.1/DTD/svg11.dtd">
<svg version="1.1" id="&#x5716;&#x5C64;_1" xmlns="http://www.w3.org/2000/svg" xmlns:xlink="http://www.w3.org/1999/xlink" x="0px"
	 y="0px" width="45px" height="45px" viewBox="0 0 45 45" style="enable-background:new 0 0 45 45;" xml:space="preserve">
<circle style="fill:#FFED00;" cx="22.5" cy="22.5" r="21.883"/>
<g>
	<path d="M14.265,30.072v2.035H12.3V12.111h6.46v19.475h-1.988v-1.514H14.265z M16.773,13.886h-2.508v3.455h2.508V13.886z
		 M14.265,22.689h2.508v-3.715h-2.508V22.689z M14.265,28.273h2.508v-3.857h-2.508V28.273z M32.084,25.694v6.815h-2.059v-0.994
		h-7.455v0.994h-2.059v-6.815h4.615V24.18h-5.893v-1.822h5.893v-1.373h-5.183v-1.728h5.183v-1.16l-1.964,0.095l-2.036,0.071
		l-0.379-1.396h-1.183v-4.307h5.277l-0.236-0.615l-0.497-0.923l2.2-0.284c0.174,0.284,0.348,0.624,0.521,1.018l0.331,0.805h5.632
		v4.212H31.54l0.26,0.591c-0.646,0.126-1.364,0.237-2.153,0.332l-2.461,0.284v1.278h5.419v1.728h-5.419v1.373h6.2v1.822h-6.2v1.515
		H32.084z M30.759,15.897v-1.562h-9.158v2.083h1.207l2.319-0.071v-1.538h2.059v1.491l2.012-0.213L30.759,15.897z M30.025,27.422
		h-7.455v2.343h7.455V27.422z"/>
</g>
</svg>
