<?xml version="1.0" encoding="iso-8859-1"?>
<!-- Generator: Adobe Illustrator 17.0.0, SVG Export Plug-In . SVG Version: 6.00 Build 0)  -->
<!DOCTYPE svg PUBLIC "-//W3C//DTD SVG 1.1//EN" "http://www.w3.org/Graphics/SVG/1.1/DTD/svg11.dtd">
<svg version="1.1" id="&#x5716;&#x5C64;_1" xmlns="http://www.w3.org/2000/svg" xmlns:xlink="http://www.w3.org/1999/xlink" x="0px"
	 y="0px" width="45px" height="45px" viewBox="0 0 45 45" style="enable-background:new 0 0 45 45;" xml:space="preserve">
<circle style="fill:#FFED00;" cx="22.5" cy="22.5" r="21.883"/>
<g>
	<path d="M25.9,23.795h6.971v1.718H25.9v1.326h6.604v1.669H25.9v1.448h7.781v1.792H25.9v2.037h-2.184V22.592h-2.161v4.688
		c0,1.964-0.532,3.461-1.595,4.492c-1.064,1.031-3.077,1.702-6.039,2.013l-1.301-1.768c3.175-0.163,5.212-0.736,6.112-1.718
		c-1.228,0.164-2.34,0.245-3.338,0.245l-3.707,0.172l-0.368-1.742c1.309,0,2.34-0.009,3.093-0.025h0.81
		c1.457,0,2.798-0.057,4.026-0.171c0.065-0.164,0.098-0.344,0.098-0.54v-0.319h-6.873v-1.62h6.897v-0.982h-7.266v-1.718h7.266
		v-1.006h-5.695v-4.394h7.683v-1.031h-9.843v-1.669h9.843v-1.056H15.32c-0.147,0.147-0.36,0.303-0.638,0.466l-1.006,0.565
		l-1.473-1.399c1.456-0.605,2.749-1.554,3.878-2.847l1.816,0.712L17.48,12.38c-0.164,0.164-0.311,0.295-0.442,0.393h4.32v-1.571
		h2.135v1.571h8.348v1.669h-8.348v1.056h10.064v1.669H23.493v1.031h7.709v4.394H25.9V23.795z M29.066,19.72h-13.23v1.35h13.23V19.72
		z"/>
</g>
</svg>
