<?xml version="1.0" encoding="iso-8859-1"?>
<!-- Generator: Adobe Illustrator 17.0.0, SVG Export Plug-In . SVG Version: 6.00 Build 0)  -->
<!DOCTYPE svg PUBLIC "-//W3C//DTD SVG 1.1//EN" "http://www.w3.org/Graphics/SVG/1.1/DTD/svg11.dtd">
<svg version="1.1" id="&#x5716;&#x5C64;_1" xmlns="http://www.w3.org/2000/svg" xmlns:xlink="http://www.w3.org/1999/xlink" x="0px"
	 y="0px" width="13px" height="16px" viewBox="0 0 13 16" style="enable-background:new 0 0 13 16;" xml:space="preserve">
<g>
	<g>
		<path style="fill:#231815;" d="M2.314,14.399l-0.098-3.568l5.328-0.038l0.097,3.542l1.043,0.032
			c0.234-0.002,0.347-0.141,0.339-0.418L8.915,9.966l-7.762,0.055L1.121,8.892l10.097-0.072l0.031,1.129L9.946,9.959l0.112,4.074
			l0.005,0.156c0.014,0.501-0.062,0.851-0.229,1.046c-0.166,0.196-0.491,0.295-0.973,0.299l-1.304,0.009l-0.284-1.179L2.314,14.399z
			 M2.336,8.7L1.742,7.583c1.807-0.953,1.9-1.151,2.742-2.161L1.8,5.307l-0.053-1.32L4.73,4.267c0.107-0.28,0.095-0.325,0.17-0.572
			c0.068-0.227,0.142-0.511,0.152-0.591l1.397,0.049L6.298,3.702L6.249,4.15c0,0,1.52,0.026,2.015-0.038
			C8.738,4.05,9.939,3.311,9.939,3.311l0.454,1.053c0,0-1.448,0.895-1.867,0.962c-0.378,0.06-1.747,0.117-1.747,0.117
			C7.738,6.43,8.916,6.954,10.91,7.182l-0.561,1.337C9.282,8.384,8.783,8.174,7.95,7.744C7.118,7.315,6.239,6.76,5.598,5.804
			C5.039,6.675,3.788,7.944,2.336,8.7z M6.54,11.905L3.29,11.981l0.07,1.503l3.266-0.096L6.54,11.905z M7.667,1.929
			C7.646,2.973,6.811,3.801,5.802,3.78c-1.009-0.021-1.81-0.885-1.79-1.928C4.033,0.808,4.868-0.021,5.877,0
			S7.688,0.885,7.667,1.929z"/>
	</g>
</g>
</svg>
