<?xml version="1.0" encoding="utf-8"?>
<!-- Generator: Adobe Illustrator 17.0.0, SVG Export Plug-In . SVG Version: 6.00 Build 0)  -->
<!DOCTYPE svg PUBLIC "-//W3C//DTD SVG 1.1//EN" "http://www.w3.org/Graphics/SVG/1.1/DTD/svg11.dtd">
<svg version="1.1" id="圖層_1" xmlns="http://www.w3.org/2000/svg" xmlns:xlink="http://www.w3.org/1999/xlink" x="0px" y="0px"
	 width="13px" height="16px" viewBox="0 0 13 16" enable-background="new 0 0 13 16" xml:space="preserve">
<circle fill="#FFE500" cx="6.5" cy="7.5" r="6.5"/>
<g>
	<g>
		<path d="M3.56,12.193l-0.073-2.65l3.957-0.028l0.072,2.63l0.775,0.024c0.174-0.001,0.258-0.105,0.252-0.31l-0.08-2.958
			L2.698,8.942L2.674,8.104l7.499-0.053l0.023,0.838L9.228,8.896l0.083,3.026l0.004,0.116c0.01,0.372-0.046,0.632-0.17,0.777
			c-0.123,0.146-0.365,0.219-0.723,0.222l-0.968,0.007l-0.211-0.876L3.56,12.193z M3.577,7.961l-0.441-0.83
			c1.342-0.708,1.411-0.855,2.036-1.605L3.178,5.441l-0.039-0.98l2.215,0.208c0.079-0.208,0.071-0.241,0.126-0.425
			c0.051-0.169,0.105-0.379,0.113-0.439l1.037,0.036L6.519,4.249L6.483,4.582c0,0,1.129,0.019,1.496-0.028
			c0.352-0.046,1.244-0.595,1.244-0.595L9.56,4.741c0,0-1.075,0.665-1.387,0.714C7.893,5.5,6.876,5.542,6.876,5.542
			c0.712,0.733,1.587,1.122,3.068,1.291L9.527,7.827c-0.792-0.1-1.163-0.256-1.782-0.576C7.128,6.932,6.475,6.52,5.999,5.81
			C5.584,6.457,4.655,7.4,3.577,7.961z M6.699,10.341l-2.414,0.056l0.052,1.116l2.426-0.071L6.699,10.341z M7.536,2.932
			C7.52,3.708,6.9,4.323,6.151,4.307C5.401,4.292,4.806,3.65,4.821,2.875C4.837,2.1,5.457,1.484,6.206,1.5
			C6.956,1.515,7.551,2.157,7.536,2.932z"/>
	</g>
</g>
</svg>
