<?xml version="1.0" encoding="iso-8859-1"?>
<!-- Generator: Adobe Illustrator 17.0.0, SVG Export Plug-In . SVG Version: 6.00 Build 0)  -->
<!DOCTYPE svg PUBLIC "-//W3C//DTD SVG 1.1//EN" "http://www.w3.org/Graphics/SVG/1.1/DTD/svg11.dtd">
<svg version="1.1" id="&#x5716;&#x5C64;_1" xmlns="http://www.w3.org/2000/svg" xmlns:xlink="http://www.w3.org/1999/xlink" x="0px"
	 y="0px" width="60px" height="20px" viewBox="0 0 60 20" style="enable-background:new 0 0 60 20;" xml:space="preserve">
<rect style="fill:#23599B;" width="60" height="20"/>
<g>
	<path style="fill:#23599B;" d="M15.783,0.048c-2.36-0.192-4.789,0.242-7.106,0.543C8.112,0.664,2.834,1.708,4.448,0.455
		c-0.33,0.256-0.669,0.457-1.013,0.621c0.07,2.333,0.141,4.666,0.183,6.999c0.063,1.717,0.096,3.422,0.091,5.099
		c-0.002,0.79-0.157,1.479-0.424,2.07c-0.027,0.754-0.037,1.509-0.076,2.263c-0.01,0.194-0.03,0.38-0.057,0.56
		c0.2,0.041,0.4,0.087,0.599,0.157c0.736-0.013,1.393,0.125,1.984,0.357c2.302,0.003,4.605,0.007,6.908,0
		c0.828-0.003,1.564-0.219,2.183-0.586c0.11-0.71,0.285-1.621,0.307-1.701c0.272-0.989,0.861-1.769,1.605-2.348
		c0.005-1.794,0.002-3.587,0.002-5.381c0-1.918-0.057-3.839,0.014-5.755C16.793,1.708,16.408,0.768,15.783,0.048z M14.043,3.77
		c0.006,0.328-0.151,0.432-0.453,0.426c-0.44-0.009-0.88-0.014-1.32,0.006c-0.933,0.042-1.365,0.425-1.443,1.342
		c-0.051,0.612-0.019,1.231-0.025,1.846c-0.003,0.317,0.166,0.431,0.466,0.429c0.686-0.006,1.373,0.016,2.059-0.005
		c0.431-0.014,0.569,0.168,0.509,0.572c-0.097,0.66-0.198,1.322-0.265,1.987c-0.039,0.389-0.23,0.496-0.593,0.479
		c-0.509-0.023-1.023,0.024-1.53-0.013c-0.524-0.038-0.661,0.186-0.657,0.675c0.019,2.077,0.01,4.154,0.008,6.231
		c-0.001,0.724-0.012,0.733-0.742,0.736c-0.598,0.001-1.197-0.021-1.795,0.006c-0.45,0.021-0.629-0.127-0.616-0.599
		c0.027-1.073,0.008-2.147,0.008-3.221c0-1.091-0.013-2.182,0.006-3.273c0.007-0.414-0.148-0.569-0.556-0.552
		c-0.527,0.021-1.057-0.011-1.584,0.008c-0.375,0.014-0.552-0.113-0.541-0.511c0.018-0.668,0.018-1.338,0-2.006
		C4.97,7.939,5.14,7.803,5.518,7.815c0.527,0.018,1.057-0.012,1.583,0.007C7.506,7.837,7.66,7.685,7.663,7.27
		c0.003-0.895-0.061-1.792,0.08-2.687c0.297-1.865,1.515-3.043,3.393-3.185c0.823-0.061,1.652-0.043,2.477,0.063
		c0.306,0.039,0.436,0.151,0.43,0.462C14.032,2.538,14.033,3.155,14.043,3.77z"/>
	<path style="fill:#FFFFFF;" d="M14.043,3.77c0.006,0.328-0.151,0.432-0.453,0.426c-0.44-0.01-0.88-0.014-1.32,0.006
		c-0.933,0.042-1.365,0.425-1.442,1.342c-0.051,0.612-0.019,1.231-0.025,1.846c-0.003,0.317,0.166,0.431,0.466,0.429
		c0.686-0.006,1.373,0.016,2.059-0.005c0.431-0.014,0.569,0.168,0.509,0.572c-0.097,0.66-0.198,1.322-0.265,1.987
		c-0.039,0.389-0.23,0.496-0.593,0.479c-0.509-0.023-1.023,0.024-1.53-0.013c-0.524-0.038-0.662,0.186-0.657,0.675
		c0.019,2.077,0.01,4.154,0.008,6.231c-0.001,0.724-0.012,0.733-0.742,0.736c-0.598,0.001-1.197-0.021-1.795,0.006
		c-0.45,0.021-0.629-0.127-0.616-0.599c0.027-1.073,0.008-2.147,0.008-3.221c0-1.091-0.013-2.182,0.006-3.273
		c0.007-0.414-0.148-0.569-0.556-0.552c-0.527,0.021-1.057-0.011-1.584,0.008c-0.375,0.014-0.552-0.113-0.541-0.511
		c0.018-0.668,0.018-1.338,0-2.006C4.97,7.939,5.14,7.803,5.518,7.815c0.527,0.018,1.057-0.012,1.583,0.007
		C7.506,7.837,7.66,7.685,7.663,7.27c0.003-0.895-0.061-1.792,0.08-2.687c0.297-1.865,1.515-3.043,3.393-3.185
		c0.823-0.061,1.652-0.043,2.477,0.063c0.306,0.039,0.436,0.151,0.43,0.462C14.032,2.538,14.033,3.155,14.043,3.77z"/>
</g>
</svg>
