<?xml version="1.0" encoding="iso-8859-1"?>
<!-- Generator: Adobe Illustrator 17.0.0, SVG Export Plug-In . SVG Version: 6.00 Build 0)  -->
<!DOCTYPE svg PUBLIC "-//W3C//DTD SVG 1.1//EN" "http://www.w3.org/Graphics/SVG/1.1/DTD/svg11.dtd">
<svg version="1.1" id="&#x5716;&#x5C64;_1" xmlns="http://www.w3.org/2000/svg" xmlns:xlink="http://www.w3.org/1999/xlink" x="0px"
	 y="0px" width="40px" height="40px" viewBox="0 0 40 40" style="enable-background:new 0 0 40 40;" xml:space="preserve">
<rect style="fill:#3765A3;" width="40" height="40"/>
<g>
	<path style="fill:#FFFFFF;" d="M31.793,38.999c-2.639,0-5.179,0-7.79,0c0-6.217,0-12.419,0-18.695c-1.262,0-2.456,0-3.691,0
		c0-2.224,0-4.374,0-6.617c1.194,0,2.385,0,3.661,0c0-1.222-0.031-2.353,0.009-3.481c0.035-0.974,0.059-1.964,0.247-2.915
		c0.654-3.304,2.987-5.464,6.343-5.691c2.308-0.156,4.634-0.03,7.001-0.03c0,2.105,0,4.207,0,6.395c-1.255,0-2.5-0.001-3.744,0
		c-1.528,0.002-2.045,0.512-2.054,2.044c-0.007,1.181-0.001,2.362-0.001,3.64c1.992,0,3.934,0,5.953,0
		c-0.234,2.262-0.456,4.419-0.683,6.619c-1.75,0-3.451,0-5.252,0C31.793,26.531,31.793,32.746,31.793,38.999z"/>
</g>
</svg>
